<?xml version="1.0" encoding="UTF-8" standalone="no"?><!DOCTYPE svg PUBLIC "-//W3C//DTD SVG 1.1//EN" "http://www.w3.org/Graphics/SVG/1.1/DTD/svg11.dtd"><svg width="100px" height="24px" viewBox="0 0 417 100" version="1.1" xmlns="http://www.w3.org/2000/svg" xmlns:xlink="http://www.w3.org/1999/xlink" xml:space="preserve" xmlns:serif="http://www.serif.com/" style="fill-rule:evenodd;clip-rule:evenodd;stroke-linejoin:round;stroke-miterlimit:2;"><g id="Artboard1"><rect x="158.333" y="0" width="100" height="100" style="fill:none;"/><g><g id="Omega-Logo-24x24" serif:id="Omega Logo 24x24"><rect x="-0.002" y="0" width="100" height="100" style="fill:none;"/><g><g><path d="M49.998,0c27.595,0 50,22.405 50,50c-0,27.596 -22.405,50 -50,50c-27.596,0 -50,-22.404 -50,-50c-0,-27.595 22.404,-50 50,-50Zm-0,33.334c9.198,-0 16.666,7.468 16.666,16.666c0,9.199 -7.468,16.667 -16.666,16.667c-9.199,0 -16.667,-7.468 -16.667,-16.667c0,-9.198 7.468,-16.666 16.667,-16.666Z" style="fill:#121416;"/></g></g></g></g><text x="112.71px" y="54.036px" style="font-family:'Rockwell-Regular', 'Rockwell', serif;font-size:66.667px;">OMEG<tspan x="333.087px " y="54.036px ">A</tspan></text><text x="163.145px" y="95.126px" style="font-family:'Rockwell-Italic', 'Rockwell', serif;font-style:italic;font-size:50px;">r<tspan x="182.847px " y="95.126px ">e</tspan>cor<tspan x="289.854px " y="95.126px ">d</tspan>s</text></g></svg>